HIERARCHY
ROOT Hip
{
	OFFSET 0.00 0.00 0.00
	CHANNELS 6 Xposition Yposition Zposition Xrotation Yrotation Zrotation
	JOINT ShoulderCenter
	{
		OFFSET 0.23 17.40 -1.97
		CHANNELS 3 Xrotation Yrotation Zrotation
		JOINT ShoulderLeft
		{
			OFFSET -19.12 0.06 -1.85
			CHANNELS 3 Xrotation Yrotation Zrotation
			JOINT ElbowLeft
			{
				OFFSET -10.14 -23.46 0.36
				CHANNELS 3 Xrotation Yrotation Zrotation
				JOINT WristLeft
				{
					OFFSET -8.19 -20.70 -9.08
					CHANNELS 3 Xrotation Yrotation Zrotation
					End Site
					{
						OFFSET 0.0 0.0 0.0
					}
				}
			}
		}
		JOINT ShoulderRight
		{
			OFFSET 19.13 -0.05 1.84
			CHANNELS 3 Xrotation Yrotation Zrotation
			JOINT ElbowRight
			{
				OFFSET 11.08 -21.51 6.17
				CHANNELS 3 Xrotation Yrotation Zrotation
				JOINT WristRight
				{
					OFFSET 20.13 -25.88 -15.07
					CHANNELS 3 Xrotation Yrotation Zrotation
					End Site
					{
						OFFSET 0.0 0.0 0.0
					}
				}
			}
		}
	}
	JOINT HipLeft
	{
		OFFSET -15.19 -17.36 0.53
		CHANNELS 3 Xrotation Yrotation Zrotation
		JOINT KneeLeft
		{
			OFFSET 6.06 -46.73 8.93
			CHANNELS 3 Xrotation Yrotation Zrotation
			JOINT FootLeft
			{
				OFFSET -2.96 -47.41 0.83
				CHANNELS 3 Xrotation Yrotation Zrotation
				End Site
				{
					OFFSET 0.0 0.0 0.0
				}
			}
		}
	}
	JOINT HipRight
	{
		OFFSET 14.71 -17.44 3.42
		CHANNELS 3 Xrotation Yrotation Zrotation
		JOINT KneeRight
		{
			OFFSET 1.86 -48.71 1.44
			CHANNELS 3 Xrotation Yrotation Zrotation
			JOINT FootRight
			{
				OFFSET 4.21 -50.55 15.28
				CHANNELS 3 Xrotation Yrotation Zrotation
				End Site
				{
					OFFSET 0.0 0.0 0.0
				}
			}
		}
	}
}
MOTION
Frames: 46
Frame Time: 0.1
-3.81 46.35 175.48 7.20 0.28 0.02 -2.90 19.20 -0.49 47.68 -46.57 -21.54 75.78 -8.93 -6.96 0.00 0.00 0.00 -21.80 54.74 -11.38 12.96 73.46 9.69 0.00 0.00 0.00 -0.00 -12.16 0.00 -3.11 -2.07 0.06 0.00 0.00 0.00 -6.34 11.20 -0.62 -9.36 6.85 -0.56 0.00 0.00 0.00
-3.37 46.25 175.47 7.93 -0.79 -0.06 -1.95 18.75 -0.32 46.75 -46.45 -21.02 77.01 -8.86 -7.05 0.00 0.00 0.00 -22.11 52.75 -11.07 12.20 70.63 8.66 0.00 0.00 0.00 0.08 -12.40 -0.01 -3.38 -1.51 0.04 0.00 0.00 0.00 -5.83 11.66 -0.60 -9.39 7.40 -0.61 0.00 0.00 0.00
-2.85 46.28 175.51 8.08 -1.75 -0.12 -2.09 17.67 -0.33 45.68 -47.23 -20.86 77.81 -8.99 -7.26 0.00 0.00 0.00 -22.26 50.41 -10.58 11.63 67.70 7.81 0.00 0.00 0.00 0.25 -12.42 -0.03 -3.70 -1.18 0.04 0.00 0.00 0.00 -6.42 11.86 -0.67 -9.69 7.66 -0.65 0.00 0.00 0.00
-2.48 46.23 175.89 8.95 -2.72 -0.21 -1.84 16.23 -0.26 45.15 -47.84 -20.90 78.41 -9.13 -7.45 0.00 0.00 0.00 -22.14 48.83 -10.15 11.87 65.32 7.63 0.00 0.00 0.00 0.81 -12.17 -0.09 -3.95 -1.29 0.04 0.00 0.00 0.00 -6.23 11.67 -0.64 -10.00 8.05 -0.71 0.00 0.00 0.00
-2.00 46.28 176.07 9.44 -3.64 -0.30 -1.35 15.34 -0.18 46.05 -47.83 -21.34 79.71 -8.66 -7.23 0.00 0.00 0.00 -22.43 46.30 -9.69 11.63 62.31 7.04 0.00 0.00 0.00 0.24 -12.38 -0.03 -4.39 -1.40 0.05 0.00 0.00 0.00 -6.19 11.79 -0.64 -9.97 8.36 -0.73 0.00 0.00 0.00
-1.58 46.16 176.22 9.65 -4.43 -0.37 -1.14 14.47 -0.14 45.95 -48.88 -21.81 80.65 -8.48 -7.20 0.00 0.00 0.00 -22.50 44.63 -9.33 10.83 60.32 6.31 0.00 0.00 0.00 0.23 -13.01 -0.03 -4.69 -1.37 0.06 0.00 0.00 0.00 -6.38 11.77 -0.66 -9.94 8.72 -0.76 0.00 0.00 0.00
-1.22 45.88 176.33 9.87 -5.23 -0.45 -1.10 13.76 -0.13 44.67 -50.60 -21.98 80.89 -8.88 -7.57 0.00 0.00 0.00 -23.07 42.83 -9.16 9.98 58.81 5.63 0.00 0.00 0.00 0.52 -13.67 -0.06 -4.78 -1.29 0.05 0.00 0.00 0.00 -6.30 11.70 -0.65 -9.84 8.99 -0.78 0.00 0.00 0.00
-0.95 45.58 176.62 10.40 -6.03 -0.55 -0.75 12.88 -0.09 45.28 -50.77 -22.39 81.87 -8.64 -7.49 0.00 0.00 0.00 -23.20 41.44 -8.88 9.66 57.29 5.29 0.00 0.00 0.00 1.48 -13.90 -0.18 -4.85 -1.49 0.06 0.00 0.00 0.00 -6.30 11.94 -0.66 -9.63 9.09 -0.77 0.00 0.00 0.00
-0.56 45.23 176.80 10.52 -6.42 -0.59 -1.14 12.38 -0.12 46.06 -51.27 -23.06 83.03 -8.48 -7.51 0.00 0.00 0.00 -23.82 40.06 -8.80 9.59 56.09 5.12 0.00 0.00 0.00 2.36 -13.62 -0.28 -5.04 -1.77 0.08 0.00 0.00 0.00 -6.60 12.32 -0.71 -9.16 9.25 -0.74 0.00 0.00 0.00
-0.23 44.90 176.75 10.84 -6.91 -0.66 -0.69 12.01 -0.07 46.47 -52.01 -23.66 84.23 -8.04 -7.28 0.00 0.00 0.00 -24.36 38.92 -8.72 8.97 54.68 4.65 0.00 0.00 0.00 2.78 -13.97 -0.34 -4.98 -2.43 0.11 0.00 0.00 0.00 -6.23 12.08 -0.66 -8.80 9.13 -0.70 0.00 0.00 0.00
0.04 44.36 176.80 10.90 -7.48 -0.71 -0.67 11.55 -0.07 46.91 -52.85 -24.34 85.34 -7.91 -7.30 0.00 0.00 0.00 -24.79 37.70 -8.58 8.46 53.61 4.28 0.00 0.00 0.00 2.78 -14.08 -0.34 -4.61 -2.73 0.11 0.00 0.00 0.00 -6.12 11.90 -0.64 -8.84 9.16 -0.71 0.00 0.00 0.00
0.50 43.72 176.78 10.90 -8.08 -0.77 -0.73 10.97 -0.07 47.55 -54.02 -25.32 86.80 -7.58 -7.17 0.00 0.00 0.00 -25.24 36.40 -8.42 8.10 52.49 4.00 0.00 0.00 0.00 2.72 -14.56 -0.35 -3.64 -2.85 0.09 0.00 0.00 0.00 -5.69 11.81 -0.59 -8.44 8.66 -0.64 0.00 0.00 0.00
0.62 43.33 177.04 11.26 -8.66 -0.86 -0.41 10.05 -0.04 47.83 -54.72 -25.85 87.71 -7.26 -6.97 0.00 0.00 0.00 -25.23 35.41 -8.17 7.84 51.85 3.81 0.00 0.00 0.00 2.95 -14.84 -0.38 -3.21 -3.16 0.09 0.00 0.00 0.00 -5.03 11.42 -0.50 -8.25 8.44 -0.61 0.00 0.00 0.00
0.79 43.21 177.17 11.76 -9.46 -0.98 -0.11 9.44 -0.01 48.31 -54.67 -26.10 88.17 -7.03 -6.81 0.00 0.00 0.00 -25.06 34.76 -7.96 7.63 51.54 3.69 0.00 0.00 0.00 3.49 -15.02 -0.46 -3.00 -3.15 0.08 0.00 0.00 0.00 -4.49 11.42 -0.45 -8.20 8.29 -0.60 0.00 0.00 0.00
0.84 42.99 177.25 11.83 -9.96 -1.03 -0.13 9.19 -0.01 49.70 -54.07 -26.59 89.26 -6.25 -6.17 0.00 0.00 0.00 -25.11 34.49 -7.91 7.47 50.94 3.56 0.00 0.00 0.00 3.57 -15.23 -0.48 -3.11 -3.00 0.08 0.00 0.00 0.00 -4.32 11.76 -0.45 -8.13 8.31 -0.59 0.00 0.00 0.00
0.76 42.96 177.75 12.70 -10.06 -1.12 0.47 8.21 0.03 50.78 -53.35 -26.83 89.51 -6.03 -5.98 0.00 0.00 0.00 -24.60 34.33 -7.70 7.87 50.77 3.74 0.00 0.00 0.00 4.05 -15.27 -0.54 -3.15 -2.63 0.07 0.00 0.00 0.00 -3.79 12.20 -0.41 -7.80 8.17 -0.56 0.00 0.00 0.00
0.77 42.90 177.66 13.02 -9.92 -1.13 0.68 8.09 0.05 50.81 -53.72 -27.05 89.91 -5.81 -5.80 0.00 0.00 0.00 -25.05 34.01 -7.77 7.60 50.63 3.60 0.00 0.00 0.00 3.66 -15.52 -0.50 -3.28 -2.67 0.08 0.00 0.00 0.00 -3.44 12.36 -0.37 -7.80 8.11 -0.55 0.00 0.00 0.00
0.83 43.06 177.68 12.90 -9.75 -1.11 0.68 8.27 0.05 50.54 -53.89 -26.99 89.95 -5.72 -5.71 0.00 0.00 0.00 -25.00 33.87 -7.73 7.54 50.75 3.58 0.00 0.00 0.00 3.16 -15.61 -0.43 -3.51 -2.74 0.08 0.00 0.00 0.00 -3.84 12.36 -0.42 -7.72 8.01 -0.54 0.00 0.00 0.00
0.72 43.27 177.78 12.96 -9.63 -1.10 0.28 8.32 0.02 51.26 -52.78 -26.79 90.03 -5.58 -5.58 0.00 0.00 0.00 -25.18 34.20 -7.86 8.08 51.56 3.91 0.00 0.00 0.00 3.08 -15.60 -0.42 -3.38 -2.81 0.08 0.00 0.00 0.00 -3.59 12.04 -0.38 -8.11 8.09 -0.57 0.00 0.00 0.00
0.45 43.65 177.72 13.04 -9.15 -1.05 0.06 8.89 0.01 50.30 -52.95 -26.32 88.82 -6.27 -6.14 0.00 0.00 0.00 -25.50 35.02 -8.17 8.04 52.67 3.99 0.00 0.00 0.00 3.11 -15.16 -0.41 -4.02 -2.78 0.10 0.00 0.00 0.00 -3.95 12.04 -0.42 -8.53 8.14 -0.61 0.00 0.00 0.00
0.02 44.33 177.81 12.67 -8.04 -0.89 -0.04 10.46 -0.00 49.84 -51.60 -25.32 86.98 -6.44 -6.11 0.00 0.00 0.00 -24.94 36.81 -8.42 8.53 54.66 4.41 0.00 0.00 0.00 2.32 -14.85 -0.30 -4.75 -2.64 0.11 0.00 0.00 0.00 -5.13 12.21 -0.55 -9.04 8.29 -0.66 0.00 0.00 0.00
-0.44 44.75 177.36 11.54 -6.77 -0.68 -0.86 12.21 -0.09 49.21 -50.80 -24.53 85.84 -6.22 -5.79 0.00 0.00 0.00 -25.25 38.77 -9.01 8.68 56.71 4.69 0.00 0.00 0.00 1.37 -14.64 -0.18 -4.59 -2.38 0.10 0.00 0.00 0.00 -5.78 12.08 -0.61 -9.51 8.18 -0.68 0.00 0.00 0.00
-0.77 45.06 177.06 11.17 -5.64 -0.55 -1.08 13.71 -0.13 49.99 -48.87 -23.92 85.06 -5.58 -5.12 0.00 0.00 0.00 -24.68 40.78 -9.30 9.08 58.79 5.12 0.00 0.00 0.00 1.22 -14.08 -0.15 -4.57 -2.36 0.09 0.00 0.00 0.00 -6.32 11.83 -0.66 -9.86 8.25 -0.71 0.00 0.00 0.00
-1.15 45.61 176.95 10.84 -4.58 -0.44 -1.55 14.64 -0.20 49.02 -47.88 -22.88 82.77 -6.01 -5.30 0.00 0.00 0.00 -24.18 42.97 -9.64 10.08 61.13 5.97 0.00 0.00 0.00 0.73 -13.91 -0.09 -4.89 -2.23 0.10 0.00 0.00 0.00 -7.39 11.70 -0.76 -10.13 8.00 -0.71 0.00 0.00 0.00
-1.68 45.86 176.74 10.28 -3.67 -0.33 -2.15 15.35 -0.29 47.58 -47.04 -21.73 80.39 -6.36 -5.38 0.00 0.00 0.00 -24.03 45.97 -10.32 10.63 63.60 6.61 0.00 0.00 0.00 0.21 -13.70 -0.03 -5.58 -2.47 0.12 0.00 0.00 0.00 -8.05 11.66 -0.82 -10.42 7.91 -0.72 0.00 0.00 0.00
-2.01 46.38 176.66 9.52 -2.84 -0.24 -2.74 16.32 -0.39 47.99 -44.93 -20.86 78.40 -5.91 -4.83 0.00 0.00 0.00 -23.01 47.94 -10.35 11.88 65.91 7.72 0.00 0.00 0.00 -0.23 -13.64 0.03 -6.10 -2.43 0.13 0.00 0.00 0.00 -8.59 11.79 -0.89 -10.91 7.93 -0.76 0.00 0.00 0.00
-2.44 46.61 176.28 8.07 -1.58 -0.11 -4.03 17.46 -0.62 51.19 -43.00 -21.37 77.65 -4.79 -3.85 0.00 0.00 0.00 -22.55 50.57 -10.76 12.75 68.59 8.72 0.00 0.00 0.00 -0.45 -13.42 0.05 -6.96 -2.07 0.13 0.00 0.00 0.00 -8.95 11.71 -0.92 -10.81 7.93 -0.75 0.00 0.00 0.00
-2.68 46.71 176.04 6.74 -0.35 -0.02 -5.20 19.32 -0.89 51.76 -42.17 -21.19 75.45 -4.73 -3.66 0.00 0.00 0.00 -22.21 53.42 -11.28 13.69 71.20 9.82 0.00 0.00 0.00 -0.99 -12.89 0.11 -6.95 -2.16 0.13 0.00 0.00 0.00 -9.09 11.68 -0.93 -10.52 7.67 -0.71 0.00 0.00 0.00
-3.24 46.58 175.87 6.33 1.23 0.07 -5.08 21.00 -0.94 51.83 -41.19 -20.69 72.75 -4.44 -3.27 0.00 0.00 0.00 -21.58 56.34 -11.66 14.39 74.26 10.92 0.00 0.00 0.00 -1.24 -12.33 0.13 -6.72 -2.65 0.16 0.00 0.00 0.00 -8.81 11.57 -0.89 -10.08 7.34 -0.65 0.00 0.00 0.00
-3.75 46.65 175.46 5.45 2.60 0.12 -5.24 22.53 -1.04 49.84 -40.69 -19.55 69.48 -4.33 -3.01 0.00 0.00 0.00 -21.16 59.66 -12.23 15.17 77.29 12.15 0.00 0.00 0.00 -1.99 -12.21 0.21 -6.62 -2.78 0.16 0.00 0.00 0.00 -9.39 11.76 -0.97 -9.90 6.89 -0.60 0.00 0.00 0.00
-4.14 46.22 175.09 4.30 4.41 0.17 -6.01 24.41 -1.30 47.04 -40.63 -18.31 66.60 -4.67 -3.07 0.00 0.00 0.00 -21.18 63.61 -13.23 16.03 80.66 13.63 0.00 0.00 0.00 -2.09 -11.68 0.21 -6.74 -3.08 0.18 0.00 0.00 0.00 -9.67 11.95 -1.01 -9.75 6.57 -0.56 0.00 0.00 0.00
-4.72 46.26 174.70 3.61 5.45 0.17 -6.69 25.11 -1.49 44.37 -39.22 -16.53 63.10 -4.62 -2.84 0.00 0.00 0.00 -21.04 66.41 -13.86 17.39 83.27 15.48 0.00 0.00 0.00 -1.96 -11.94 0.20 -6.86 -3.55 0.21 0.00 0.00 0.00 -9.72 11.57 -0.99 -9.55 6.02 -0.50 0.00 0.00 0.00
-5.28 46.04 174.34 2.49 6.49 0.14 -7.72 26.07 -1.79 41.25 -38.93 -15.16 59.97 -4.58 -2.64 0.00 0.00 0.00 -20.75 69.89 -14.58 18.75 86.39 17.62 0.00 0.00 0.00 -1.79 -11.49 0.18 -7.44 -3.58 0.23 0.00 0.00 0.00 -9.75 11.69 -1.00 -9.90 5.99 -0.52 0.00 0.00 0.00
-5.77 45.88 173.84 2.03 7.28 0.13 -7.85 27.26 -1.91 37.85 -38.32 -13.59 56.54 -4.55 -2.45 0.00 0.00 0.00 -20.13 73.22 -15.03 19.54 89.60 19.41 0.00 0.00 0.00 -1.47 -11.36 0.15 -7.59 -3.63 0.24 0.00 0.00 0.00 -9.68 12.08 -1.03 -9.78 5.93 -0.51 0.00 0.00 0.00
-6.39 45.58 173.42 1.56 8.01 0.11 -8.19 28.16 -2.06 35.01 -37.96 -12.38 53.21 -4.59 -2.30 0.00 0.00 0.00 -19.74 76.52 -15.62 20.53 92.52 21.44 0.00 0.00 0.00 -1.66 -11.05 0.16 -7.48 -3.35 0.22 0.00 0.00 0.00 -10.38 12.58 -1.15 -9.87 5.93 -0.51 0.00 0.00 0.00
-7.08 45.47 173.07 1.19 8.83 0.09 -8.02 29.05 -2.08 32.38 -37.43 -11.24 50.00 -4.35 -2.03 0.00 0.00 0.00 -19.24 79.42 -16.02 21.40 95.25 23.41 0.00 0.00 0.00 -2.19 -10.04 0.19 -7.22 -3.42 0.22 0.00 0.00 0.00 -10.88 13.13 -1.26 -9.86 6.14 -0.53 0.00 0.00 0.00
-7.77 45.48 172.76 0.86 9.40 0.07 -8.33 29.77 -2.22 30.10 -36.73 -10.20 46.79 -4.19 -1.81 0.00 0.00 0.00 -18.58 82.44 -16.31 22.75 96.77 25.52 0.00 0.00 0.00 -2.31 -8.74 0.18 -7.06 -3.83 0.24 0.00 0.00 0.00 -11.29 13.72 -1.36 -9.92 6.36 -0.55 0.00 0.00 0.00
-8.46 44.99 172.18 0.28 9.81 0.02 -8.83 30.21 -2.39 27.87 -36.47 -9.35 44.16 -3.89 -1.58 0.00 0.00 0.00 -18.12 85.44 -16.75 23.98 98.84 27.85 0.00 0.00 0.00 -2.63 -8.09 0.19 -7.02 -3.34 0.21 0.00 0.00 0.00 -11.60 14.30 -1.46 -9.93 7.00 -0.61 0.00 0.00 0.00
-8.86 44.92 171.94 -0.50 10.27 -0.04 -9.42 30.79 -2.60 26.33 -36.02 -8.70 41.62 -3.76 -1.43 0.00 0.00 0.00 -18.10 87.18 -17.24 25.22 100.27 29.99 0.00 0.00 0.00 -2.78 -7.38 0.18 -7.17 -2.68 0.17 0.00 0.00 0.00 -11.90 14.96 -1.57 -10.06 7.58 -0.67 0.00 0.00 0.00
-9.33 44.73 171.66 -1.28 10.91 -0.12 -10.16 31.55 -2.88 25.01 -35.99 -8.24 39.11 -3.86 -1.37 0.00 0.00 0.00 -18.13 88.59 -17.70 25.99 101.29 31.44 0.00 0.00 0.00 -2.55 -6.41 0.14 -6.79 -2.65 0.16 0.00 0.00 0.00 -12.28 15.84 -1.72 -9.77 7.65 -0.65 0.00 0.00 0.00
-9.72 44.26 171.58 -2.01 12.24 -0.22 -10.74 33.05 -3.20 23.95 -35.96 -7.87 37.35 -4.05 -1.37 0.00 0.00 0.00 -16.74 91.70 -17.24 28.79 100.74 34.44 0.00 0.00 0.00 -2.41 -5.58 0.12 -6.88 -2.36 0.14 0.00 0.00 0.00 -12.19 16.79 -1.81 -9.16 7.81 -0.63 0.00 0.00 0.00
-10.14 43.73 171.17 -2.61 13.22 -0.30 -10.96 33.92 -3.35 22.53 -35.89 -7.38 35.69 -4.11 -1.32 0.00 0.00 0.00 -15.90 93.91 -17.01 31.05 100.45 36.91 0.00 0.00 0.00 -2.19 -5.59 0.11 -6.77 -2.65 0.16 0.00 0.00 0.00 -12.19 17.13 -1.84 -8.50 7.68 -0.57 0.00 0.00 0.00
-10.44 43.08 170.75 -4.14 14.13 -0.51 -12.22 34.93 -3.86 21.24 -36.18 -7.01 34.24 -4.15 -1.28 0.00 0.00 0.00 -16.05 95.31 -17.59 32.61 100.27 38.61 0.00 0.00 0.00 -2.58 -5.31 0.12 -6.36 -2.90 0.16 0.00 0.00 0.00 -12.37 17.48 -1.91 -8.29 7.66 -0.56 0.00 0.00 0.00
-10.82 42.86 170.23 -5.00 14.79 -0.65 -13.10 35.75 -4.24 19.55 -35.94 -6.39 32.67 -4.28 -1.25 0.00 0.00 0.00 -15.93 96.13 -17.70 34.17 99.66 40.01 0.00 0.00 0.00 -2.54 -5.38 0.12 -4.57 -2.95 0.12 0.00 0.00 0.00 -11.82 17.61 -1.84 -7.52 7.71 -0.51 0.00 0.00 0.00
-11.00 42.53 170.28 -5.36 15.71 -0.74 -13.27 36.75 -4.43 18.68 -36.05 -6.13 31.83 -4.62 -1.32 0.00 0.00 0.00 -14.64 97.91 -16.78 38.06 96.51 42.27 0.00 0.00 0.00 -2.52 -5.08 0.11 -3.31 -2.32 0.07 0.00 0.00 0.00 -12.16 18.05 -1.94 -6.88 7.77 -0.47 0.00 0.00 0.00
-11.23 42.38 170.19 -5.91 16.76 -0.87 -13.79 38.07 -4.78 17.71 -35.80 -5.76 31.10 -4.80 -1.34 0.00 0.00 0.00 -13.14 99.52 -15.50 42.22 92.65 44.03 0.00 0.00 0.00 -2.28 -5.16 0.10 -2.67 -2.39 0.06 0.00 0.00 0.00 -11.83 18.25 -1.91 -6.39 7.76 -0.43 0.00 0.00 0.00
